<?xml version="1.0" standalone="yes"?>
<svg xmlns="http://www.w3.org/2000/svg" width="1505" height="418">
<path style="fill:#83ff7a; stroke:none;" d="M0 0C8.33762 21.9973 27.9346 43.4019 41 63C45.3158 69.4737 51.8245 76.5799 54.2978 84C56.2754 89.9326 55 97.8057 55 104L55 145L69 144L69 94L155 94L155 139C185.691 139 216.367 135.381 247 134.039C258.697 133.527 270.326 132.889 282 132.09C287.742 131.696 294.265 132.917 299.772 130.772C304.457 128.946 303.979 121.126 303.999 117C304.056 105.296 306.512 87.8923 293.999 81.4529C280.543 74.5284 256.814 79 242 79L121 79L85 79C80.6541 79 74.0933 80.1964 70.1844 77.9722C64.4363 74.7015 60.8328 65.3456 57.2577 60C47.2316 45.0085 37.6025 29.5831 27 15L256 15C293.949 15 336.906 12.4095 366.985 40.1705C391.054 62.3839 390 96.0092 390 126L404 126C404 92.1099 405.37 55.8699 378.91 30.1698C346.203 -1.5993 297.212 0 255 0L0 0z"/>
<path style="fill:#f2fff3; stroke:none;" d="M297 0L297 1C339.874 1 384.28 21.3043 398.921 64C405.971 84.5595 404.9 108.544 403.961 130C403.536 139.701 401.5 149.838 398.305 159C396.596 163.899 392.426 169.771 392.426 175C392.426 181.468 398.079 188.718 399.845 195C403.474 207.911 404 220.689 404 234L594 234C610.332 234 626.668 234.112 642.999 233.999C648.373 233.962 654.638 229.69 649.821 223.603C647.388 220.528 639.465 222 636 222L598 222C554.051 222 503.092 227.765 463 205.971C424.585 185.089 417 148.115 417 108C417 81.1907 420.514 56.2401 438.439 35C458.484 11.2488 493.854 1 524 1L503 0L457 0L297 0z"/>
<path style="fill:#83ff7a; stroke:none;" d="M431 124C431 105.231 430.28 86.0483 436.356 68C458.014 3.65747 543.001 15 596 15L1081 15L1081 79L930 79C917.157 79 893.922 74.6696 884.225 85.108C880.591 89.0188 880.217 94.0622 879 99C887.556 99 893.337 94.352 901.001 94.0193C939.357 92.3541 977.691 94.534 1016 91.9105C1088.5 86.9454 1162.31 80 1235 80L1235 79L1096 79L1096 15L1292 15C1326.38 15 1362.95 11.498 1397 16.4283C1416.33 19.2266 1435.95 25.3975 1451 38.3001C1456.18 42.7437 1460.7 48.0873 1464.12 54C1466.03 57.2878 1467.42 62.7271 1470.64 64.9722C1474.04 67.3444 1481.03 66 1485 66C1477.67 34.3458 1449.93 14.3434 1420 6.15201C1395.45 -0.567627 1370.21 0 1345 0L1255 0L760 0L601 0C569.58 0 537.134 -2.31473 506 2.27161C470.268 7.53537 436.542 24.3648 423.229 60C417.427 75.5309 417 91.6498 417 108C417 111.696 415.277 121.452 418.603 123.958C421.288 125.98 427.76 124.027 431 124z"/>
<path style="fill:#f2fff3; stroke:none;" d="M1383 0L1383 1C1417.65 1 1455.34 14.3733 1475.25 44C1487.81 62.6899 1490 85.155 1490 107C1490 152.509 1478.01 195.652 1430 212L1457.58 257L1502 328L1401 328C1390.88 328 1370.01 331.997 1361.18 326.972C1356.86 324.509 1354.02 318.031 1351.33 314C1344.49 303.714 1337.86 293.284 1331 283C1306.18 245.769 1282.02 208.096 1257 171L1256 171L1256 328L929 328C881.861 328 825.196 329.462 794.771 286C778.201 262.33 779 234.536 779 207L779 94L592 94L547 94C542.865 94 534.67 92.4143 532.603 97.1481C530.577 101.79 529.89 124.017 534.318 126.972C538.565 129.807 548.066 128 553 128L602 128C654.727 128 721.728 122.72 753.384 175C757.84 182.359 760.861 190.662 762.87 199C765.862 211.424 766.518 224.265 765.961 237C765.526 246.923 763.43 257.705 759.935 267C735.489 332.013 659.967 328 603 328L55 328L55 160L55 109L54.49 84L38.6667 59L1 2L0 2L0 418L1505 418L1505 0L1383 0z"/>
<path style="fill:#010101; stroke:none;" d="M504 2L505 3L504 2z"/>
<path style="fill:#78ff66; stroke:none;" d="M1 3L2 4L1 3M3 6L4 7L3 6z"/>
<path style="fill:#10d906; stroke:none;" d="M341 8L342 9L341 8M479 8L480 9L479 8z"/>
<path style="fill:#78ff66; stroke:none;" d="M5 9L6 10L5 9z"/>
<path style="fill:#010101; stroke:none;" d="M349 11L350 12L349 11M471 11L472 12L471 11z"/>
<path style="fill:#78ff66; stroke:none;" d="M7 12L8 13L7 12M9 15L10 16L9 15M27 15L28 16L27 15z"/>
<path style="fill:#10d906; stroke:none;" d="M28 15C34.1263 31.1632 48.0756 46.6135 57.6667 61C61.0243 66.0364 64.8072 74.9126 70.1844 77.9722C74.3014 80.3148 81.4143 79 86 79L123 79L241 79C256.079 79 279.073 74.7115 293 80.9699C310.302 88.7449 309.529 133.912 292 141.02C280.67 145.614 265.012 143 253 143L170 143L170 207L272 207C286.524 207 302.29 207.657 303.812 226C304.908 239.214 295.859 248.377 283 248.961C245.503 250.663 207.54 249 170 249L170 314L517 314L617 314C642.986 314 669.828 314.781 695 307.279C710.405 302.688 725.238 294.829 735.331 282C758.812 252.155 758.431 195.011 729.961 168.171C699.074 139.053 653.06 143 614 143L614 207C626.361 207 646.166 203.25 656.985 210.144C670.223 218.58 668.165 242.513 653 247.532C644.06 250.49 633.298 249 624 249L570 249L388 249C389.326 232.202 390.363 215.499 385.842 199C383.775 191.458 375.552 182.339 375.212 175C374.851 167.188 384.7 155.379 386.575 147C393.324 116.839 393.388 72.305 373.482 47C348.762 15.5752 304.298 15 268 15L28 15z"/>
<path style="fill:#78ff66; stroke:none;" d="M297 15L297 16L302 16L297 15M519 15L519 16L524 16L519 15z"/>
<path style="fill:#10d906; stroke:none;" d="M599 207L599 143L550 143C541.722 143 532.232 143.967 525.093 138.891C510.843 128.759 512.201 86.008 530 80.2245C538.54 77.4495 549.12 79 558 79L613 79L796 79C790.664 95.8746 794 117.426 794 135C794 161.725 793 188.29 793 215C793 234.56 793.432 255.525 803.429 273C818.27 298.942 846.88 308.79 875 312.155C879.642 312.711 896.916 316.226 899.972 312.396C902.783 308.874 901 299.303 901 295L901 249C888.464 248.453 880.45 241.745 879.171 229C875.73 194.728 879 158.46 879 124C879 112.006 875.397 93.3012 885.105 84.2137C896.299 73.7354 923.732 79 938 79L1081 79L1081 16C1067.97 12.1479 1050.59 15 1037 15L945 15L645 15L553 15C527.671 15 500.614 14.6741 477 25.3117C437.628 43.0481 432 77.1182 432 116C432 143.363 436.735 169.486 460 187.1C497.492 215.487 555.015 207 599 207z"/>
<path style="fill:#78ff66; stroke:none;" d="M1080 15L1081 16L1080 15z"/>
<path style="fill:#10d906; stroke:none;" d="M1096 15L1096 79L1296 79L1351 79C1359.92 79 1370.69 77.3315 1379 81.1891C1395.72 88.9561 1395.51 132.511 1379 140.427C1368.01 145.7 1351.84 143 1340 143L1257 143L1280.95 181L1338.67 269L1359 300L1369.09 312.972L1399 314L1475 314C1471.94 300.967 1459.81 287.304 1452.68 276C1437.39 251.734 1422.83 226.919 1407 203C1435.36 201.763 1462.54 179.52 1470.97 153C1475.75 137.967 1475 122.551 1475 107C1475 76.4715 1468.52 45.4998 1439 29.7816C1402.26 10.2178 1358.21 15 1318 15L1096 15z"/>
<path style="fill:#78ff66; stroke:none;" d="M1383 15L1383 16L1389 16L1383 15M308 16L308 17L311 17L308 16M510 16L510 17L513 17L510 16M1394 16L1394 17L1398 17L1394 16M315 17L315 18L318 18L315 17M503 17L503 18L506 18L503 17M1080 17L1080 20L1081 20L1080 17M1401 17L1401 18L1404 18L1401 17z"/>
<path style="fill:#010101; stroke:none;" d="M1447 17L1448 18L1447 17z"/>
<path style="fill:#78ff66; stroke:none;" d="M11 18L12 19L11 18M29 18L30 19L29 18M321.667 18.3333L322.333 18.6667L321.667 18.3333M498.667 18.3333L499.333 18.6667L498.667 18.3333M1407.67 18.3333L1408.33 18.6667L1407.67 18.3333M326 19L327 20L326 19M494 19L495 20L494 19M1412 19L1413 20L1412 19M30 20L31 21L30 20M330 20L331 21L330 20M490 20L491 21L490 20M1416 20L1417 21L1416 20M13 21L14 22L13 21M31 21L32 22L31 21M333 21L334 22L333 21M487 21L488 22L487 21M1419 21L1420 22L1419 21M336 22L337 23L336 22M484 22L485 23L484 22M1422 22L1423 23L1422 22M32 23L33 24L32 23M339 23L340 24L339 23M481 23L482 24L481 23M1425 23L1426 24L1425 23z"/>
<path style="fill:#010101; stroke:none;" d="M1456 23L1457 24L1456 23z"/>
<path style="fill:#78ff66; stroke:none;" d="M15 24L16 25L15 24M33 24L34 25L33 24M342 24L343 25L342 24M478 24L479 25L478 24M1428 24L1429 25L1428 24M344 25L345 26L344 25M476 25L477 26L476 25M1430 25L1431 26L1430 25M34 26L35 27L34 26M346 26L347 27L346 26M474 26L475 27L474 26M1432 26L1433 27L1432 26M17 27L18 28L17 27M35 27L36 28L35 27M348 27L349 28L348 27z"/>
<path style="fill:#10d906; stroke:none;" d="M375 27L376 28L375 27M445 27L446 28L445 27z"/>
<path style="fill:#78ff66; stroke:none;" d="M472 27L473 28L472 27M1434 27L1435 28L1434 27M350 28L351 29L350 28M470 28L471 29L470 28M1436 28L1437 29L1436 28z"/>
<path style="fill:#10d906; stroke:none;" d="M1462 28L1463 29L1462 28z"/>
<path style="fill:#78ff66; stroke:none;" d="M352 29L353 30L352 29M468 29L469 30L468 29M1438 29L1439 30L1438 29z"/>
<path style="fill:#10d906; stroke:none;" d="M1463 29L1464 30L1463 29z"/>
<path style="fill:#78ff66; stroke:none;" d="M19 30L20 31L19 30M37 30L38 31L37 30M354 30L355 31L354 30M466 30L467 31L466 30M1440 30L1441 31L1440 30M1464 30L1465 31L1464 30M1465 31L1466 32L1465 31M38 32L39 33L38 32M357 32L358 33L357 32M463 32L464 33L463 32M1443 32L1444 33L1443 32M21 33L22 34L21 33M39 33L40 34L39 33z"/>
<path style="fill:#010101; stroke:none;" d="M1467 33L1468 34L1467 33z"/>
<path style="fill:#78ff66; stroke:none;" d="M360 34L361 35L360 34z"/>
<path style="fill:#10d906; stroke:none;" d="M382 34L383 35L382 34M438 34L439 35L438 34z"/>
<path style="fill:#78ff66; stroke:none;" d="M460 34L461 35L460 34M1446 34L1447 35L1446 34M40 35L41 36L40 35M361 35L362 36L361 35M459 35L460 36L459 35M1447 35L1448 36L1447 35M23 36L24 37L23 36M41 36L42 37L41 36M456 37L457 38L456 37M1450 37L1451 38L1450 37M365 38L366 39L365 38M455 38L456 39L455 38M1451 38L1452 39L1451 38M25 39L26 40L25 39M43 39L44 40L43 39M366 39L367 40L366 39M386 39L387 40L386 39M454 39L455 40L454 39M1452 39L1453 40L1452 39M367 40L368 41L367 40M453 40L454 41L453 40M1453 40L1454 41L1453 40M368 41L369 42L368 41M452 41L453 42L452 41M1454 41L1455 42L1454 41M27 42L28 43L27 42M45 42L46 43L45 42M369 42L370 43L369 42M451 42L452 43L451 42M1455 42L1456 43L1455 42M1474 42L1475 43L1474 42M370 43L371 44L370 43M450 43L451 44L450 43M1456 43L1457 44L1456 43M46 44L47 45L46 44M371 44L372 45L371 44M449 44L450 45L449 44M1457 44L1458 45L1457 44M29 45L30 46L29 45M47 45L48 46L47 45M1458 45L1459 46L1458 45z"/>
<path style="fill:#10d906; stroke:none;" d="M1476 45L1477 46L1476 45z"/>
<path style="fill:#78ff66; stroke:none;" d="M31 48L32 49L31 48M49 48L50 49L49 48M374 48L375 49L374 48M446 48L447 49L446 48M1460 48L1461 49L1460 48M445 49L446 50L445 49M1461 49L1462 50L1461 49z"/>
<path style="fill:#010101; stroke:none;" d="M427 50L428 51L427 50z"/>
<path style="fill:#78ff66; stroke:none;" d="M33 51L34 52L33 51M51 51L52 52L51 51M376 51L377 52L376 51M444 51L445 52L444 51M1462 51L1463 52L1462 51z"/>
<path style="fill:#010101; stroke:none;" d="M426 52L427 53L426 52z"/>
<path style="fill:#78ff66; stroke:none;" d="M443 52L444 53L443 52M1463 52L1464 53L1463 52M35 54L36 55L35 54M53 54L54 55L53 54M378 54L379 55L378 54M442 54L443 55L442 54M1464 54L1465 55L1464 54M1481 55L1482 56L1481 55M54 56L55 57L54 56M379 56L380 57L379 56M441 56L442 57L441 56M1465 56L1466 57L1465 56M37 57L38 58L37 57M55 57L56 58L55 57M1482 57L1483 58L1482 57M380 58L381 59L380 58M440 58L441 59L440 58M1466 58L1467 59L1466 58M39 60L40 61L39 60M57 60L58 61L57 60M381 60L382 61L381 60M439 60L440 61L439 60M1467 60L1468 61L1467 60M1483 60L1484 61L1483 60M382 62L383 63L382 62z"/>
<path style="fill:#10d906; stroke:none;" d="M398 62L399 63L398 62z"/>
<path style="fill:#78ff66; stroke:none;" d="M438 62L439 63L438 62M1468 62L1469 63L1468 62M41 63L42 64L41 63M59 63L60 64L59 63M1484 63L1485 64L1484 63M383 64L384 65L383 64M437 64L438 65L437 64M1469 64L1470 65L1469 64M60 65L61 66L60 65z"/>
<path style="fill:#010101; stroke:none;" d="M399 65L400 66L399 65z"/>
<path style="fill:#10d906; stroke:none;" d="M421 65L422 66L421 65z"/>
<path style="fill:#78ff66; stroke:none;" d="M43 66L44 67L43 66M61 66L62 67L61 66M1470 66C1479.71 112.936 1481.88 170.736 1432 195.244C1424.34 199.01 1415.56 202.301 1407 203L1457.05 284L1475 314L1400 314C1391.87 314 1377.32 316.797 1370.04 312.972C1365.37 310.518 1362.48 304.24 1359.67 300C1352.39 289.036 1345.3 277.951 1338 267C1310.99 226.49 1279.87 185.96 1257 143L1341 143C1352.83 143 1369.02 145.71 1380 140.427C1396.78 132.35 1395.12 85.694 1377 80.0548C1366.83 76.8878 1353.59 79 1343 79L1274 79C1176.82 79 1080.07 93 983 93L983 94L1141 94L1141 234L958 234L912 234C907.759 234 898.87 235.663 895.603 232.397C890.349 227.143 894 205.236 894 198L894 97L879 99L879 213C879 230.605 878.675 248.537 901 249L901 296C901 300.16 902.681 309.225 899.397 312.382C895.404 316.22 879.248 312.541 874 311.95C845.08 308.692 815.472 296.327 801.809 269C791.823 249.028 793 225.679 793 204C793 166.712 794 129.357 794 92L793 92L793 104L779 105L779 208C779 236.111 778.578 264.111 795.921 288C826.442 330.044 883.714 328 930 328L1256 328L1256 170L1257 170C1262.46 184.417 1274.45 198.179 1283 211C1300.08 236.62 1316.92 262.382 1334 288C1340.19 297.285 1346.14 306.715 1352.33 316C1354.67 319.501 1357.29 325.613 1361.33 327.397C1371.37 331.839 1391 328 1402 328L1501 328L1479.05 291L1430 212C1437.8 209.866 1445.29 205.977 1452 201.481C1497.47 170.994 1492.37 113.325 1486 66L1470 66M384 67L385 68L384 67M436 67L437 68L436 67M62 68L63 69L62 68M45 69L46 70L45 69M63 69L64 70L63 69M385.333 70.6667L385.667 71.3333L385.333 70.6667M435 70L436 71L435 70M64 71L65 72L64 71M47 72L48 73L47 72M65 72L66 73L65 72M401 73L402 74L401 73M66 74L67 75L66 74M386 74L387 75L386 74M434 74L435 75L434 74M49 75L50 76L49 75M67 75L68 76L67 75M68 77L69 78L68 77M51 78L52 79L51 78M69 78L70 79L69 78M387.333 78.6667L387.667 79.3333L387.333 78.6667z"/>
<path style="fill:#010101; stroke:none;" d="M402 78L403 79L402 78M418 78L419 79L418 78z"/>
<path style="fill:#78ff66; stroke:none;" d="M433.333 78.6667L433.667 79.3333L433.333 78.6667M287.667 79.3333L288.333 79.6667L287.667 79.3333M532 79L532 80L535 80L532 79z"/>
<path style="fill:#83ff7a; stroke:none;" d="M517 119L531 119C532.015 113.535 529.486 98.2523 534.318 95.0278C538.565 92.1935 548.066 94 553 94L600 94L779 94L779 105L793 104L795 79L605 79L553 79C544.829 79 534.548 77.6258 527.001 81.456C513.969 88.0698 517 106.957 517 119z"/>
<path style="fill:#78ff66; stroke:none;" d="M795 79L796 80L795 79M894 79L894 80L897 80L894 79z"/>
<path style="fill:#10d906; stroke:none;" d="M1488 79L1489 80L1488 79z"/>
<path style="fill:#78ff66; stroke:none;" d="M292 80L293 81L292 80M528 80L529 81L528 80M890.667 80.3333L891.333 80.6667L890.667 80.3333M53 81L54 82L53 81M294 81L295 82L294 81M526 81L527 82L526 81M888 81L889 82L888 81M296 82L297 83L296 82M524 82L525 83L524 82M886 82L887 83L886 82M297 83L298 84L297 83M523 83L524 84L523 83M794 83L794 86L795 86L794 83M885 83L886 84L885 83M298 84L299 85L298 84M388 84L388 87L389 87L388 84M432 84L432 87L433 87L432 84M522 84L523 85L522 84M884 84L885 85L884 84M299 85L300 86L299 85M521 85L522 86L521 85M883 85L884 86L883 85M300 86L301 87L300 86M417 86L418 87L417 86M520 86L521 87L520 86M882 86L883 87L882 86z"/>
<path style="fill:#010101; stroke:none;" d="M1489 87L1490 88L1489 87z"/>
<path style="fill:#78ff66; stroke:none;" d="M301 88L302 89L301 88M519 88L520 89L519 88M881 88L882 89L881 88M302.333 90.6667L302.667 91.3333L302.333 90.6667M518.333 90.6667L518.667 91.3333L518.333 90.6667M880.333 90.6667L880.667 91.3333L880.333 90.6667M69 94L69 144L55 145L55 328L455 328C521.786 328 589.286 330.882 656 327.961C681.335 326.851 708.939 321.419 730 306.561C764.048 282.54 771.505 237.504 762.986 199C761.209 190.968 758.068 183.246 754.218 176C725.794 122.49 655.123 128 604 128L555 128C549.553 128 539.966 129.825 535.148 126.972C531.36 124.729 532.003 119.765 532 116L531 116L531 119L517 119C517.021 126.638 518.084 134.989 525.093 139.517C532.26 144.146 541.891 143 550 143L599 143L599 207C545.374 207 459.198 218.511 436.695 154C430.008 134.829 432 113.959 432 94L431 94L431 124L417 124C417 135.203 418.514 146.241 421.721 157C442.487 226.678 526.132 222 584 222L632 222C636.415 222 646.01 220.214 649.397 223.603C654.121 228.331 649.054 233.76 643.999 233.981C627.402 234.704 610.615 234 594 234L404 234L400.255 196L392.452 174.424L398.645 159L404 126L390 126L390 94L389 94C389 111.936 390.513 130.453 386.105 148C384.079 156.064 374.346 167.315 374.697 175C375.049 182.709 383.675 192.092 385.842 200C390.322 216.347 388.713 232.388 388 249L571 249L625 249C634.296 249 645.063 250.493 654 247.532C668.22 242.819 670.29 218.199 657.96 210.144C647.125 203.067 626.459 207 614 207L614 143C653.111 143 697.889 139.471 728.985 168.171C756.954 193.983 758.935 247.707 737.561 278C727.055 292.889 711.206 302.151 694 307.279C668.828 314.781 641.986 314 616 314L516 314L170 314L170 249L247 249C260.002 249 274.129 250.56 287 248.7C302.427 246.471 308.178 229.227 301.316 216.004C295.077 203.981 278.216 207 267 207L170 207L170 143L270 143C281.019 143 298.673 144.876 302 131L155 139L155 314L93 314C87.7309 314 74.5709 316.364 70.6034 312.397C67.4628 309.256 69 301.062 69 297C69 282.61 68.9293 268.329 69.9105 254C72.4415 217.04 70 179.055 70 142C70 128.485 74.2064 106.407 69 94z"/>
<path style="fill:#10d906; stroke:none;" d="M70 94L70 201L69.7145 255L69 298L70.6034 312.972L93 314L155 314L155 94L70 94z"/>
<path style="fill:#f2fff3; stroke:none;" d="M170 94L170 128L252 128C261.289 128 277.326 131.119 285.852 127.397C290.995 125.151 290.885 100.683 287.972 96.3179C284.368 90.9165 264.943 94 259 94L170 94z"/>
<path style="fill:#78ff66; stroke:none;" d="M287 94L288 95L287 94M303 94L303 97L304 97L303 94M517 94L517 97L518 97L517 94M533 94L534 95L533 94M879 94L879 98L880 98L879 94z"/>
<path style="fill:#10d906; stroke:none;" d="M895 94L894 96L895 94z"/>
<path style="fill:#f2fff3; stroke:none;" d="M1141 234L1141 94L968 94L918 94C912.074 94 902.634 92.2081 897.148 94.6034C890.752 97.3961 894 118.958 894 125L894 206C894 211.38 891.154 229.448 895.603 232.972C899.148 235.779 908.68 234 913 234L960 234L1141 234z"/>
<path style="fill:#10d906; stroke:none;" d="M1156 94L1155 249L915 249L915 314L1241 314L1241 94L1156 94z"/>
<path style="fill:#f2fff3; stroke:none;" d="M1256 94L1256 128L1338 128C1347.3 128 1363.34 131.107 1371.85 127.258C1376.99 124.933 1376.91 100.724 1373.97 96.3179C1370.37 90.9166 1350.94 94 1345 94L1256 94z"/>
<path style="fill:#78ff66; stroke:none;" d="M288 95L289 96L288 95M532 95L533 96L532 95M303 124L303 127L304 127L303 124M288 126L289 127L288 126z"/>
<path style="fill:#010101; stroke:none;" d="M1372 127L1373 128L1372 127z"/>
<path style="fill:#10d906; stroke:none;" d="M662 128L663 129L662 128z"/>
<path style="fill:#78ff66; stroke:none;" d="M302.333 129.667L302.667 130.333L302.333 129.667z"/>
<path style="fill:#10d906; stroke:none;" d="M672 129L673 130L672 129M417 135L418 136L417 135z"/>
<path style="fill:#010101; stroke:none;" d="M709 138L710 139L709 138M718 142L719 143L718 142z"/>
<path style="fill:#10d906; stroke:none;" d="M725 146L726 147L725 146M1487 147L1488 148L1487 147z"/>
<path style="fill:#010101; stroke:none;" d="M419 148L420 149L419 148z"/>
<path style="fill:#10d906; stroke:none;" d="M731 150L732 151L731 150M420 152L421 153L420 152z"/>
<path style="fill:#010101; stroke:none;" d="M1485 155L1486 156L1485 155z"/>
<path style="fill:#10d906; stroke:none;" d="M1484 158L1485 159L1484 158z"/>
<path style="fill:#010101; stroke:none;" d="M1483 161L1484 162L1483 161z"/>
<path style="fill:#10d906; stroke:none;" d="M745 163L746 164L745 163M1480 168L1481 169L1480 168M1256 170L1257 171L1256 170M1479 170L1480 171L1479 170z"/>
<path style="fill:#010101; stroke:none;" d="M751 171L752 172L751 171z"/>
<path style="fill:#10d906; stroke:none;" d="M1478 172L1479 173L1478 172M1258 173L1259 174L1258 173M391 174L392 175L391 174z"/>
<path style="fill:#010101; stroke:none;" d="M430 176L431 177L430 176M754 176L755 177L754 176z"/>
<path style="fill:#10d906; stroke:none;" d="M1260 176L1261 177L1260 176M1475 177L1476 178L1475 177M755 178L756 179L755 178M432 179L433 180L432 179M1262 179L1263 180L1262 179M756 180L757 181L756 180M1473 180L1474 181L1473 180M1264 182L1265 183L1264 182M1470 184L1471 185L1470 184M1266 185L1267 186L1266 185z"/>
<path style="fill:#010101; stroke:none;" d="M759 187L760 188L759 187z"/>
<path style="fill:#10d906; stroke:none;" d="M398 190L399 191L398 190z"/>
<path style="fill:#010101; stroke:none;" d="M441 190L442 191L441 190z"/>
<path style="fill:#10d906; stroke:none;" d="M760 190L761 191L760 190z"/>
<path style="fill:#010101; stroke:none;" d="M442 191L443 192L442 191M399 193L400 194L399 193z"/>
<path style="fill:#10d906; stroke:none;" d="M761 193L762 194L761 193M1458 196L1459 197L1458 196M449 197L450 198L449 197M1454 199L1455 200L1454 199z"/>
<path style="fill:#010101; stroke:none;" d="M453 200L454 201L453 200z"/>
<path style="fill:#10d906; stroke:none;" d="M401 201L402 202L401 201M763 201L764 202L763 201z"/>
<path style="fill:#010101; stroke:none;" d="M456 202L457 203L456 202z"/>
<path style="fill:#10d906; stroke:none;" d="M1448 203L1449 204L1448 203z"/>
<path style="fill:#010101; stroke:none;" d="M402 206L403 207L402 206M463 206L464 207L463 206M465 207L466 208L465 207z"/>
<path style="fill:#10d906; stroke:none;" d="M1434 210L1435 211L1434 210z"/>
<path style="fill:#010101; stroke:none;" d="M1283 211L1284 212L1283 211z"/>
<path style="fill:#10d906; stroke:none;" d="M477 212L478 213L477 212M480 213L481 214L480 213M1430 213L1431 214L1430 213M403 214L404 215L403 214z"/>
<path style="fill:#010101; stroke:none;" d="M483 214L484 215L483 214z"/>
<path style="fill:#10d906; stroke:none;" d="M765 214L766 215L765 214z"/>
<path style="fill:#010101; stroke:none;" d="M1285 214L1286 215L1285 214z"/>
<path style="fill:#10d906; stroke:none;" d="M1432 216L1433 217L1432 216M495 217L496 218L495 217M1287 217L1288 218L1287 217M500 218L501 219L500 218M1289 220L1290 221L1289 220z"/>
<path style="fill:#010101; stroke:none;" d="M530 221L531 222L530 221z"/>
<path style="fill:#10d906; stroke:none;" d="M531 221L532 222L531 221M1435 221L1436 222L1435 221z"/>
<path style="fill:#f2fff3; stroke:none;" d="M170 222L170 234L262 234C269.404 234 289.576 238.104 288.926 227.019C288.426 218.496 267.249 222 261 222L170 222z"/>
<path style="fill:#10d906; stroke:none;" d="M650 223L651 224L650 223M1291 223L1292 224L1291 223M1437 224L1438 225L1437 224M1293 226L1294 227L1293 226M1295 229L1296 230L1295 229M1440 229L1441 230L1440 229z"/>
<path style="fill:#010101; stroke:none;" d="M288 232L289 233L288 232z"/>
<path style="fill:#10d906; stroke:none;" d="M650 232L651 233L650 232M1297 232L1298 233L1297 232M1442 232L1443 233L1442 232M1443 234L1444 235L1443 234M1299 235L1300 236L1299 235M1445 237L1446 238L1445 237M1301 238L1302 239L1301 238M1447 240L1448 241L1447 240M765 241L766 242L765 241M1303 241L1304 242L1303 241z"/>
<path style="fill:#010101; stroke:none;" d="M779 242L780 243L779 242z"/>
<path style="fill:#10d906; stroke:none;" d="M1448 242L1449 243L1448 242M1305 244L1306 245L1305 244M1450 245L1451 246L1450 245M1307 247L1308 248L1307 247M1452 248L1453 249L1452 248M780 249L781 250L780 249M1453 250L1454 251L1453 250M1311 253L1312 254L1311 253M1455 253L1456 254L1455 253M763 254L764 255L763 254M781 254L782 255L781 254M1313 256L1314 257L1313 256z"/>
<path style="fill:#010101; stroke:none;" d="M1457 256L1458 257L1457 256z"/>
<path style="fill:#10d906; stroke:none;" d="M762 258L763 259L762 258z"/>
<path style="fill:#010101; stroke:none;" d="M1314 258L1315 259L1314 258z"/>
<path style="fill:#10d906; stroke:none;" d="M1458 258L1459 259L1458 258M1315 259L1316 260L1315 259z"/>
<path style="fill:#010101; stroke:none;" d="M1316 261L1317 262L1316 261z"/>
<path style="fill:#10d906; stroke:none;" d="M1460 261L1461 262L1460 261M761 262L762 263L761 262M783 262L784 263L783 262M1318 264L1319 265L1318 264z"/>
<path style="fill:#010101; stroke:none;" d="M1462 264L1463 265L1462 264z"/>
<path style="fill:#10d906; stroke:none;" d="M760 265L761 266L760 265M784 265L785 266L784 265M1320 267L1321 268L1320 267z"/>
<path style="fill:#010101; stroke:none;" d="M759 268L760 269L759 268z"/>
<path style="fill:#10d906; stroke:none;" d="M785 268L786 269L785 268M1465 269L1466 270L1465 269M758 270L759 271L758 270M1322 270L1323 271L1322 270z"/>
<path style="fill:#010101; stroke:none;" d="M1467 272L1468 273L1467 272z"/>
<path style="fill:#10d906; stroke:none;" d="M787 273L788 274L787 273M1324 273L1325 274L1324 273z"/>
<path style="fill:#010101; stroke:none;" d="M756 275L757 276L756 275z"/>
<path style="fill:#10d906; stroke:none;" d="M788 275L789 276L788 275M1326 276L1327 277L1326 276M755 277L756 278L755 277M789 277L790 278L789 277M1470 277L1471 278L1470 277M790 279L791 280L790 279M1328 279L1329 280L1328 279z"/>
<path style="fill:#010101; stroke:none;" d="M1472 280L1473 281L1472 280z"/>
<path style="fill:#10d906; stroke:none;" d="M752 282L753 283L752 282M792 282L793 283L792 282M1330 282L1331 283L1330 282M1473 282L1474 283L1473 282M793 284L794 285L793 284M750 285L751 286L750 285M1332 285L1333 286L1332 285M1475 285L1476 286L1475 285z"/>
<path style="fill:#010101; stroke:none;" d="M795 287L796 288L795 287z"/>
<path style="fill:#10d906; stroke:none;" d="M748 288L749 289L748 288M796 288L797 289L796 288M1334 288L1335 289L1334 288z"/>
<path style="fill:#010101; stroke:none;" d="M1477 288L1478 289L1477 288z"/>
<path style="fill:#10d906; stroke:none;" d="M1478 290L1479 291L1478 290M1336 291L1337 292L1336 291z"/>
<path style="fill:#010101; stroke:none;" d="M745 292L746 293L745 292z"/>
<path style="fill:#10d906; stroke:none;" d="M799 292L800 293L799 292M744 293L745 294L744 293M800 293L801 294L800 293M1480 293L1481 294L1480 293M743 294L744 295L743 294M1338 294L1339 295L1338 294M742 295L743 296L742 295z"/>
<path style="fill:#010101; stroke:none;" d="M1482 296L1483 297L1482 296z"/>
<path style="fill:#10d906; stroke:none;" d="M1340 297L1341 298L1340 297M739 298L740 299L739 298M1483 298L1484 299L1483 298M738 299L739 300L738 299M737 300L738 301L737 300M807 300L808 301L807 300M1342 300L1343 301L1342 300M736 301L737 302L736 301M808 301L809 302L808 301M1485 301L1486 302L1485 301M732 304L733 305L732 304z"/>
<path style="fill:#010101; stroke:none;" d="M731 305L732 306L731 305z"/>
<path style="fill:#10d906; stroke:none;" d="M813 305L814 306L813 305M1488 306L1489 307L1488 306M728 307L729 308L728 307M816 307L817 308L816 307z"/>
<path style="fill:#010101; stroke:none;" d="M1347 308L1348 309L1347 308z"/>
<path style="fill:#10d906; stroke:none;" d="M725 309L726 310L725 309M819 309L820 310L819 309M1490 309L1491 310L1490 309M723 310L724 311L723 310M821 310L822 311L821 310z"/>
<path style="fill:#010101; stroke:none;" d="M1349 311L1350 312L1349 311M826 313L827 314L826 313z"/>
<path style="fill:#10d906; stroke:none;" d="M1351 314L1352 315L1351 314M1493 314L1494 315L1493 314M711 316L712 317L711 316M833 316L834 317L833 316z"/>
<path style="fill:#010101; stroke:none;" d="M835 317L836 318L835 317z"/>
<path style="fill:#10d906; stroke:none;" d="M1353 317L1354 318L1353 317M1495 317L1496 318L1495 317M706 318L707 319L706 318M838 318L839 319L838 318M703 319L704 320L703 319M841 319L842 320L841 319M700 320L701 321L700 320M844 320L845 321L844 320M1355 320L1356 321L1355 320M697 321L698 322L697 321M847 321L848 322L847 321M693 322L694 323L693 322M851 322L852 323L851 322M1498 322L1499 323L1498 322M689 323L690 324L689 323M855 323L856 324L855 323M1357 323L1358 324L1357 323M684 324L685 325L684 324M860 324L861 325L860 324z"/>
<path style="fill:#010101; stroke:none;" d="M679 325L680 326L679 325z"/>
<path style="fill:#10d906; stroke:none;" d="M865 325L866 326L865 325M1500 325L1501 326L1500 325M671 326L672 327L671 326z"/>
<path style="fill:#010101; stroke:none;" d="M872 326L873 327L872 326z"/>
<path style="fill:#10d906; stroke:none;" d="M873 326L874 327L873 326M1359 326L1360 327L1359 326M660.667 327.333L661.333 327.667L660.667 327.333M883.667 327.333L884.333 327.667L883.667 327.333M1501 327L1502 328L1501 327z"/>
</svg>
