<svg width="438" height="277" viewBox="0 0 438 277" fill="none" xmlns="http://www.w3.org/2000/svg">
<path fill-rule="evenodd" clip-rule="evenodd" d="M187.338 23.5007C167.168 31.1082 147.995 47.3968 132.892 62.5834C101.443 94.2087 96.7499 100.858 57.9506 127.408C35.3379 142.883 17.5102 155.969 8.72558 173.473C-15.9487 222.64 13.4406 275.746 75.0261 275.746C77.5363 275.746 325.374 275.746 325.374 275.746C325.374 275.746 354.822 276.421 376.312 250.141C449.148 161.072 328.345 -29.6866 187.338 23.5007Z" fill="white"/>
<path fill-rule="evenodd" clip-rule="evenodd" d="M136.768 0H306.58C310.608 0 313.904 3.86792 313.904 8.59613V118.73C313.904 123.458 310.608 127.326 306.58 127.326H136.768C132.74 127.326 129.442 123.458 129.442 118.73V8.59446C129.442 3.86792 132.738 0 136.768 0Z" fill="#B1D2FC"/>
<path fill-rule="evenodd" clip-rule="evenodd" d="M134.053 4.08301H309.293C309.585 4.08301 309.822 4.32142 309.822 4.61151V122.71C309.822 123.002 309.583 123.238 309.293 123.238H134.053C133.761 123.238 133.524 123 133.524 122.71V4.61318C133.523 4.32142 133.761 4.08301 134.053 4.08301Z" fill="#2A4589"/>
<path d="M310.044 100.314H133.745V123.205H310.044V100.314Z" fill="#1B326B"/>
<path d="M301.605 106.651H140.569V106.86H301.605V106.651Z" fill="#7BA9E3"/>
<path d="M301.605 115.27H140.569V115.478H301.605V115.27Z" fill="#7BA9E3"/>
<path fill-rule="evenodd" clip-rule="evenodd" d="M140.846 116.136C141.228 115.424 141.645 114.717 142.072 114.021C142.993 112.518 143.997 111.03 145.118 109.614C146.09 108.385 147.234 107.092 148.55 106.078C149.096 105.658 149.714 105.254 150.392 104.974C150.97 104.734 151.609 104.581 152.268 104.622C152.683 104.649 153.072 104.753 153.43 104.921C154.429 105.388 155.355 105.931 156.227 106.535C156.968 107.047 157.658 107.595 158.347 108.149C158.903 108.595 159.478 109.071 160.098 109.461C160.547 109.742 161.074 110.006 161.655 110.069C161.846 110.089 162.036 110.088 162.227 110.064C163.831 109.864 165.467 109.719 167.092 109.822C168.891 109.936 170.606 110.356 171.98 111.316C172.426 111.628 172.831 111.965 173.208 112.327C173.531 112.638 173.827 112.964 174.122 113.292C174.265 113.452 174.409 113.61 174.557 113.769C174.987 114.224 175.434 114.629 176 114.984C176.732 115.444 177.576 115.774 178.452 116.03C178.628 116.081 178.81 116.108 178.999 116.106C180.054 116.1 181.052 115.203 181.639 114.597C182.129 114.092 182.566 113.545 182.971 112.995C183.423 112.385 183.845 111.758 184.254 111.128C184.571 110.641 184.879 110.151 185.19 109.661C185.705 108.846 186.217 108.02 186.786 107.227C187.168 106.695 187.678 106.018 188.25 105.603C188.302 105.564 188.355 105.528 188.409 105.491C189.573 104.694 190.972 104.239 192.527 104.312C193.938 104.379 195.245 104.874 196.316 105.588C196.374 105.626 196.433 105.666 196.489 105.706C196.845 105.956 197.23 106.19 197.617 106.41C198.119 106.695 198.638 106.965 199.163 107.222C200.405 107.83 201.716 108.379 203.054 108.844C204.815 109.456 207.017 110.056 208.958 110.056C212.201 110.056 214.159 112.385 215.746 114.292C216.07 114.681 216.392 115.074 216.744 115.444C216.986 115.699 217.289 116 217.616 116.188L217.708 116.241C218.427 116.655 219.147 117.065 219.906 117.432C220.992 117.957 222.648 118.637 223.959 118.345C224.051 118.325 224.139 118.3 224.226 118.27C224.734 118.097 225.428 117.557 225.82 117.25C226.612 116.628 227.366 115.966 228.119 115.316C228.827 114.704 229.536 114.091 230.262 113.492C231.236 112.688 232.255 111.891 233.346 111.188C234.231 110.616 235.292 110.024 236.381 109.729C237.258 109.492 238.126 109.146 238.936 108.792C239.9 108.372 240.839 107.914 241.765 107.445C242.402 107.123 243.033 106.797 243.665 106.47C244.742 105.911 245.83 105.336 246.949 104.833C247.539 104.567 248.583 104.112 249.274 104.112C250.079 104.112 251.454 104.923 252.074 105.296C253.402 106.095 254.674 106.99 255.912 107.874C256.507 108.299 257.099 108.727 257.691 109.156C258.367 109.644 259.041 110.134 259.724 110.614C260.215 110.96 260.718 111.315 261.24 111.628C262.134 112.165 262.995 112.772 263.842 113.355C264.243 113.63 264.641 113.904 265.043 114.177C266.016 114.836 267.021 115.513 268.07 116.093C268.454 116.305 269.545 116.893 270.035 116.828C270.502 116.765 271.423 116.266 271.815 116.051C272.777 115.523 273.706 114.932 274.603 114.339C274.899 114.144 275.19 113.946 275.481 113.747C276.39 113.122 277.282 112.473 278.133 111.8C278.488 111.518 278.84 111.23 279.175 110.933C279.428 110.708 279.684 110.473 279.905 110.228C281.141 108.861 282.422 107.643 284.227 106.713C286.907 105.333 289.863 105.084 292.943 105.691C296.189 106.331 299.176 107.767 301.861 109.299L301.949 109.349V110.319L301.608 110.121C298.939 108.572 295.922 107.067 292.673 106.426C289.898 105.88 287.239 106.09 284.822 107.335C283.131 108.205 281.925 109.367 280.768 110.648C280.533 110.908 280.266 111.156 279.997 111.395C279.654 111.7 279.293 111.997 278.928 112.285C278.064 112.97 277.158 113.63 276.238 114.267C275.928 114.482 275.614 114.694 275.297 114.904C274.316 115.554 271.453 117.412 270.22 117.577C269.425 117.683 268.294 117.132 267.662 116.798C266.541 116.21 265.47 115.501 264.448 114.811C264.007 114.512 263.569 114.212 263.132 113.912C262.301 113.342 261.456 112.745 260.58 112.218C260.04 111.895 259.519 111.528 259.012 111.173C258.322 110.688 257.641 110.193 256.959 109.699C256.402 109.296 255.847 108.894 255.286 108.492C254.446 107.89 250.293 104.874 249.27 104.874C248.803 104.874 247.784 105.339 247.384 105.524C246.323 106.013 245.287 106.56 244.26 107.092C243.596 107.435 242.931 107.78 242.262 108.117C241.325 108.589 240.372 109.052 239.397 109.474C238.549 109.841 237.65 110.194 236.736 110.443C235.739 110.713 234.737 111.293 233.931 111.82C232.869 112.513 231.878 113.299 230.927 114.086C230.243 114.652 229.575 115.229 228.907 115.808C228.127 116.483 227.345 117.17 226.519 117.81C226.027 118.192 225.297 118.742 224.659 118.959C222.169 119.806 218.995 117.948 217.066 116.84L216.974 116.786C216.572 116.555 216.22 116.223 215.922 115.911C215.545 115.518 215.201 115.101 214.859 114.689C213.52 113.082 211.692 110.818 208.957 110.818C206.852 110.818 204.518 110.194 202.609 109.531C201.221 109.049 199.862 108.477 198.573 107.847C198.024 107.578 197.485 107.297 196.961 107C196.553 106.767 196.144 106.52 195.767 106.255C195.717 106.22 195.667 106.185 195.615 106.151C194.726 105.559 193.634 105.128 192.458 105.073C191.194 105.013 190.06 105.401 189.116 106.048C189.069 106.08 189.022 106.113 188.977 106.145C188.482 106.505 188.005 107.155 187.676 107.617C187.128 108.387 186.629 109.187 186.13 109.979C185.8 110.501 185.472 111.025 185.131 111.543C184.711 112.185 184.277 112.823 183.81 113.444C183.38 114.016 182.915 114.582 182.393 115.106C181.617 115.883 180.501 116.78 179.175 116.861C178.795 116.885 178.423 116.84 178.065 116.735C177.084 116.448 176.138 116.08 175.316 115.563C174.684 115.166 174.183 114.714 173.705 114.204C173.551 114.041 173.403 113.875 173.253 113.709C172.639 113.025 172.065 112.425 171.263 111.865C170.069 111.03 168.564 110.676 167.002 110.578C165.469 110.481 163.913 110.623 162.4 110.813C161.993 110.863 161.591 110.854 161.189 110.781C160.509 110.654 159.912 110.354 159.373 110.011C158.736 109.604 158.152 109.124 157.578 108.662C156.911 108.125 156.242 107.593 155.525 107.098C154.696 106.525 153.819 106.006 152.87 105.563C152.65 105.459 152.411 105.393 152.156 105.371C150.997 105.268 149.786 106.1 149.041 106.706C148.44 107.195 147.896 107.737 147.393 108.289C146.834 108.901 146.314 109.536 145.822 110.181C144.781 111.543 143.84 112.967 142.971 114.404C142.569 115.068 142.177 115.739 141.812 116.418L141.735 116.561L140.756 116.308L140.846 116.136Z" fill="#7BA9E3"/>
<path d="M187.121 45.1846H181.065V72.2317H187.121V45.1846Z" fill="#7CCADA"/>
<path d="M184.421 41.0098H183.766V76.4046H184.421V41.0098Z" fill="#7CCADA"/>
<path d="M184.421 41.0098H183.766V76.4046H184.421V41.0098Z" stroke="#7CCADA" stroke-width="0.216" stroke-miterlimit="2.6131"/>
<path d="M195.86 32.1621H189.804V40.2897H195.86V32.1621Z" fill="#7CCADA"/>
<path d="M193.159 26.7852H192.503V50.4145H193.159V26.7852Z" fill="#7CCADA"/>
<path d="M237.542 44.9795H231.486V72.0266H237.542V44.9795Z" fill="#7CCADA"/>
<path d="M234.84 40.8047H234.185V76.1995H234.84V40.8047Z" fill="#7CCADA"/>
<path d="M246.28 30.9785H240.224V44.8163H246.28V30.9785Z" fill="#7CCADA"/>
<path d="M243.578 30.9785H242.922V50.5282H243.578V30.9785Z" fill="#7CCADA"/>
<path d="M256.349 25.7783H250.293V32.2638H256.349V25.7783Z" fill="#7CCADA"/>
<path d="M253.648 18.6465H252.993V43.0211H253.648V18.6465Z" fill="#7CCADA"/>
<path d="M287.125 32.5059H281.069V42.6692H287.125V32.5059Z" fill="#7CCADA"/>
<path d="M284.425 29.374H283.77V46.7713H284.425V29.374Z" fill="#7CCADA"/>
<path d="M152.675 61.5518H146.619V88.5989H152.675V61.5518Z" fill="#7CCADA"/>
<path d="M149.973 49.5674H149.317V90.539H149.973V49.5674Z" fill="#7CCADA"/>
<path d="M149.973 49.5674H149.317V90.539H149.973V49.5674Z" stroke="#7CCADA" stroke-width="0.216" stroke-miterlimit="2.6131"/>
<path fill-rule="evenodd" clip-rule="evenodd" d="M263.707 34.2393H264.362V35.493H267.063V43.6206H264.362V44.8744H263.707V43.6206H261.007V35.493H263.707V34.2393ZM273.827 37.3886H274.483V43.3506H277.183V57.9686H274.483V63.9306H273.827V57.9686H271.127V43.3506H273.827V37.3886ZM202.618 41.8284H203.274V44.0841H205.974V58.7022H203.274V60.9579H202.618V58.7022H199.918V44.0841H202.618V41.8284ZM213.116 55.7412H213.771V57.9686H216.472V72.3967H213.771V74.6241H213.116V72.3967H210.416V57.9686H213.116V55.7412ZM223.238 58.017H223.894V70.7545H226.594V86.6463H223.894V88.902H223.238V86.6463H220.538V70.7545H223.238V58.017ZM163.035 59.014H163.691V61.2697H166.391V75.8878H163.691V78.1435H163.035V75.8878H160.335V61.2697H163.035V59.014ZM173.533 69.8492H174.188V74.1806H176.888V82.3082H174.188V86.6396H173.533V82.3082H170.832V74.1806H173.533V69.8492ZM291.497 52.2018H294.197V46.2398H294.852V52.2018H297.553V66.8199H294.852V72.7818H294.197V66.8199H291.497V52.2018Z" fill="#F6597B"/>
<path fill-rule="evenodd" clip-rule="evenodd" d="M143.118 9.35352H192.138C193.101 9.35352 193.888 10.1404 193.888 11.1024C193.888 12.0644 193.101 12.8513 192.138 12.8513H143.118C142.156 12.8513 141.369 12.0644 141.369 11.1024C141.369 10.1404 142.156 9.35352 143.118 9.35352Z" fill="#4D69AF"/>
<path fill-rule="evenodd" clip-rule="evenodd" d="M143.118 17.0068H167.509C168.471 17.0068 169.259 17.7938 169.259 18.7557C169.259 19.7177 168.471 20.5046 167.509 20.5046H143.118C142.156 20.5046 141.369 19.7177 141.369 18.7557C141.369 17.7938 142.156 17.0068 143.118 17.0068Z" fill="#4D69AF"/>
<path fill-rule="evenodd" clip-rule="evenodd" d="M223.442 91.0146L225.973 96.078H220.908L223.442 91.0146Z" fill="#F79646"/>
<path fill-rule="evenodd" clip-rule="evenodd" d="M253.304 14.3577L250.961 9.67285H255.648L253.304 14.3577Z" fill="#71BDF8"/>
<path fill-rule="evenodd" clip-rule="evenodd" d="M283.845 26.9241L281.501 22.2393H286.188L283.845 26.9241Z" fill="#71BDF8"/>
<path fill-rule="evenodd" clip-rule="evenodd" d="M174.167 89.291L176.698 94.3543H171.635L174.167 89.291Z" fill="#F79646"/>
<path fill-rule="evenodd" clip-rule="evenodd" d="M273.956 68.0039L276.488 73.0672H271.423L273.956 68.0039Z" fill="#F79646"/>
<path fill-rule="evenodd" clip-rule="evenodd" d="M332.607 265.854L337.036 265.848L349.852 273.877V275.746H332.904H332.308H315.359V273.877L328.177 265.848L332.607 265.854Z" fill="#9CC1F4"/>
<path d="M335.706 217.688H329.503V265.853H335.706V217.688Z" fill="#9CC1F4"/>
<path d="M338.284 217.688H326.927V236.43H338.284V217.688Z" fill="#B2D2FF"/>
<path fill-rule="evenodd" clip-rule="evenodd" d="M121.117 141.777C124.166 151.47 128.603 160.878 138.562 166.639C147.313 168.886 165.241 170.03 164.717 167.877C164.233 165.89 164.703 165.498 161.65 164.465C159.843 165.583 140.386 151.245 140.171 151.194C138.672 150.839 134.228 129.397 125.387 125.664C124.391 124.845 118.632 136.919 121.117 141.777Z" fill="#272D35"/>
<path fill-rule="evenodd" clip-rule="evenodd" d="M125.848 153.682C126.35 154.576 128.268 157.897 131.607 160.889C129.682 156.9 125.636 139.534 125.636 139.534L125.848 153.682Z" fill="#121A24"/>
<path fill-rule="evenodd" clip-rule="evenodd" d="M107.355 208.991H147.291C149.683 208.991 151.641 210.949 151.641 213.339C151.641 215.73 149.683 217.687 147.291 217.687H107.355C104.963 217.687 103.005 215.73 103.005 213.339C103.005 210.949 104.963 208.991 107.355 208.991Z" fill="#B2D2FF"/>
<path fill-rule="evenodd" clip-rule="evenodd" d="M93.9115 141.409H53.2358L63.4665 209.155L104.144 209.191C104.301 209.191 104.461 209.18 104.621 209.155C106.295 209.155 107.414 207.326 107.154 205.672L97.3973 143.94C97.1354 142.286 95.5877 141.409 93.9115 141.409Z" fill="#B2D2FF"/>
<path fill-rule="evenodd" clip-rule="evenodd" d="M56.2431 143.94L66.5788 208.992H111.713C114.104 208.992 116.062 210.949 116.062 213.34C116.062 215.73 114.104 217.688 111.713 217.688H66.2385C61.8988 217.688 61.1466 213.625 60.7546 211.162L50.2255 144.889C49.9636 143.235 51.0827 141.406 52.7589 141.406C54.4335 141.41 55.9796 142.288 56.2431 143.94Z" fill="#9CC1F4"/>
<path fill-rule="evenodd" clip-rule="evenodd" d="M166.898 267.878L166.848 259.414L159.542 259.626L159.695 268.29L166.898 267.878Z" fill="#F4B1B1"/>
<path fill-rule="evenodd" clip-rule="evenodd" d="M102.806 185.784L119.074 182.699C119.074 182.699 156.801 186.822 163.783 199.125C170.765 211.429 168.013 261.061 168.013 261.061L157.872 261.193C158.531 257.105 147.36 209.681 147.323 209.673L104.804 194.546L102.806 185.784Z" fill="#1F3E7A"/>
<path fill-rule="evenodd" clip-rule="evenodd" d="M102.806 185.784L108.522 188.348C113.222 188.435 133.578 191.613 136.991 192.348C148.555 194.839 147.133 200.711 147.321 209.677L138.922 208.538L104.803 194.55L102.806 185.784Z" fill="#000446"/>
<path fill-rule="evenodd" clip-rule="evenodd" d="M129.217 266.47L129.914 259.107L122.523 259.284L122.595 267.714L129.217 266.47Z" fill="#F4B1B1"/>
<path fill-rule="evenodd" clip-rule="evenodd" d="M129.58 265.223C131.669 268.974 135.073 272.56 132.414 275.746H118.886C118.864 275.684 118.841 275.619 118.821 275.548C118.689 275.111 118.059 274.929 118.481 273.332C119.265 270.366 121.57 265.806 122.36 265.573C123.931 265.108 126.16 266.418 129.58 265.223Z" fill="#031542"/>
<path fill-rule="evenodd" clip-rule="evenodd" d="M133.423 273.266V273.272C133.453 274.269 133.35 275.148 132.414 275.748H118.886C118.187 275.343 118.005 275.065 118.481 273.334L133.423 273.266Z" fill="#0F4884"/>
<path fill-rule="evenodd" clip-rule="evenodd" d="M124.21 264.855H127.342C127.773 264.855 128.126 265.207 128.126 265.639V269.665C128.126 270.096 127.774 270.449 127.342 270.449H124.21C123.78 270.449 123.426 270.097 123.426 269.665V265.639C123.426 265.207 123.778 264.855 124.21 264.855Z" fill="#0F4884"/>
<path fill-rule="evenodd" clip-rule="evenodd" d="M84.1908 184C84.1908 184 79.4624 203.073 88.0502 207.184C96.638 211.296 123.432 211.729 123.432 211.729C118.03 232.001 121.973 244.835 121.769 262.102L130.717 262.149C130.717 262.149 139.737 229.907 142.387 211.626C143.725 202.403 144.003 195.07 132.317 192.553C128.386 191.706 102.804 185.782 102.804 185.782L84.1908 184Z" fill="#1F3E7A"/>
<path fill-rule="evenodd" clip-rule="evenodd" d="M88.5845 125.471C82.1783 140.164 89.7454 154.644 83.3892 184.992C94.4037 188.503 126.955 188.61 128.358 183.582C129.037 164.389 127.931 145.991 127.154 126.808C117.412 120.06 103.163 117.852 92.0036 123.024C91.4132 123.297 90.4692 123.704 89.9105 124.149C89.3384 124.606 89.1483 125.105 88.5845 125.471Z" fill="#272D35"/>
<path fill-rule="evenodd" clip-rule="evenodd" d="M116.742 163.218L92.9904 155.274L92.8319 145.616L90.1967 142.083C90.1967 142.083 84.8246 150.297 84.8029 150.854C84.7812 151.411 87.1762 159.76 86.9611 159.77C86.7459 159.78 101.14 164.564 102.322 164.842C103.505 165.12 116.742 163.218 116.742 163.218Z" fill="#121A24"/>
<path fill-rule="evenodd" clip-rule="evenodd" d="M90.9157 123.555C81.6274 128.115 76.2753 155.909 78.4001 163.253C78.767 168.532 100.342 167.846 115.707 169.87C117.815 168.32 119.536 166.276 117.566 163.41C108.131 159.942 91.5111 156.846 91.5395 156.343C92.8504 146.283 94.8418 132.472 94.1196 125.786C94.0346 124.998 91.7229 123.159 90.9157 123.555Z" fill="#272D35"/>
<path d="M195.297 176.009H189.137V275.746H195.297V176.009Z" fill="#7BABEA"/>
<path fill-rule="evenodd" clip-rule="evenodd" d="M208.516 168.439H106.044V176.672H208.516C210.781 176.672 212.634 174.82 212.634 172.556C212.634 170.292 210.781 168.439 208.516 168.439Z" fill="#9CC1F4"/>
<path fill-rule="evenodd" clip-rule="evenodd" d="M110.133 168.439H51.6292C49.3642 168.439 47.5112 170.292 47.5112 172.556C47.5112 174.82 49.3642 176.672 51.6292 176.672H77.7278V275.746H82.9665H84.1907V176.672H110.134C112.399 176.672 114.252 174.82 114.252 172.556C114.25 170.292 112.397 168.439 110.133 168.439Z" fill="#7BABEA"/>
<path fill-rule="evenodd" clip-rule="evenodd" d="M167.832 264.998C167.832 264.998 177.576 268.998 180.823 270.588C183.347 271.824 184.775 274.423 182.703 275.747H157.468C157.447 275.687 157.425 275.62 157.403 275.55C157.028 274.303 156.047 265.398 158.673 265.595C160.3 265.718 164.187 266.875 167.832 264.998Z" fill="#031542"/>
<path fill-rule="evenodd" clip-rule="evenodd" d="M183.708 273.271L183.71 273.277L183.687 274.282C183.648 275.073 183.37 275.319 182.698 275.746H157.346C157.325 275.686 157.301 275.62 157.281 275.55C157.208 275.306 157.029 274.041 156.941 273.339L183.708 273.271Z" fill="#0F4884"/>
<path fill-rule="evenodd" clip-rule="evenodd" d="M168.906 265.451C172.415 266.91 178.298 269.379 180.715 270.534C179.452 271.508 178.246 271.315 178.246 271.315C178.246 271.315 171.395 269.177 169.445 267.795C168.294 266.978 168.524 266.065 168.906 265.451Z" fill="#0F4884"/>
<path fill-rule="evenodd" clip-rule="evenodd" d="M123.776 114.929C121.853 117.223 119.996 118.791 117.721 119.287L116.752 123.322C117.436 126.178 116.792 128.56 113.13 128.344C103.363 126.541 106.133 120.104 106.292 119.809L108.553 114.412C108.236 114.319 105.88 112.28 105.236 111.903C104.594 111.526 103.89 109.949 104.155 108.522C104.42 107.095 106.493 108.067 106.493 108.067C104.705 103.827 102.41 100.169 107.059 97.8304C111.707 95.4913 121.07 95.6963 121.07 95.6963L126.875 95.1045C125.755 96.7934 125.21 103.182 125.677 107.362C126.094 111.108 126.356 111.85 123.776 114.929Z" fill="#F4B1B1"/>
<path fill-rule="evenodd" clip-rule="evenodd" d="M112.474 128.211C110.905 129.207 108.538 130.551 106.969 131.544C104.962 128.101 104.07 125.674 103.635 121.879C104.212 121.086 106.026 119.072 106.742 118.733C107.392 121.458 108.657 125.341 112.474 128.211Z" fill="#FFF1D8"/>
<path fill-rule="evenodd" clip-rule="evenodd" d="M112.475 128.211C113.422 129.78 115.258 131.336 116.206 132.905C117.373 130.639 118.684 125.477 118.839 122.536C118.299 122.006 117.997 121.846 117.31 121.011C116.452 122.95 114.127 127.051 112.475 128.211Z" fill="#FFF1D8"/>
<path fill-rule="evenodd" clip-rule="evenodd" d="M110.566 115.589C110.982 119.087 112.479 122.401 116.182 123.23L117.306 121.009L117.72 119.287C115.939 119.157 114.289 118.625 110.566 115.589Z" fill="#FC999A"/>
<path fill-rule="evenodd" clip-rule="evenodd" d="M128.011 168.569C127.544 166.949 126.663 164.611 124.405 163.895C122.802 163.386 119.661 164.011 113.287 164.375C112.503 166.4 112.49 167.456 112.703 168.404L128.011 168.569Z" fill="#F6C0C5"/>
<path fill-rule="evenodd" clip-rule="evenodd" d="M159.806 168.436C163.586 168.418 167.809 168.466 168.926 168.42C167.819 165.123 164.098 164.308 160.992 164.488C160.247 164.997 159.543 167.539 159.806 168.436Z" fill="#F6C0C5"/>
<path fill-rule="evenodd" clip-rule="evenodd" d="M191.271 121.187H143.463C141.61 121.187 141.258 122.754 140.911 124.594L134.827 156.881C134.577 158.447 133.898 161.091 138.038 161.105L187.011 161.14L194.171 124.121C194.478 122.537 192.865 121.187 191.271 121.187Z" fill="#7BABEA"/>
<path fill-rule="evenodd" clip-rule="evenodd" d="M193.948 121.187H144.986C143.133 121.187 142.781 122.754 142.434 124.594L136.35 156.881H136.357L136.021 158.8C135.8 160.067 137.075 161.14 138.361 161.14H186.926C188.212 161.14 189.077 160.072 189.266 158.8L189.549 156.881H189.611L195.696 124.122C195.991 122.535 195.544 121.187 193.948 121.187Z" fill="#B2D2FF"/>
<path fill-rule="evenodd" clip-rule="evenodd" d="M136.403 160.2C136.848 160.765 137.604 161.139 138.361 161.139H186.925C187.523 161.139 188.028 160.909 188.418 160.537L181.291 155.354L149.502 155.73L136.403 160.2Z" fill="#7BABEA"/>
<path fill-rule="evenodd" clip-rule="evenodd" d="M188.419 160.537C188.869 160.105 189.166 159.483 189.266 158.8L189.55 156.881H189.611L195.696 124.122C195.904 123 195.741 121.998 195.065 121.506L185.623 130.699L181.292 155.354L188.419 160.537Z" fill="#C3DCFF"/>
<path fill-rule="evenodd" clip-rule="evenodd" d="M144.284 121.277C143.035 121.637 142.733 123.015 142.436 124.593L136.352 156.881H136.358L136.023 158.8C135.933 159.32 136.093 159.807 136.403 160.2L149.503 155.73L153.709 130.699L144.284 121.277Z" fill="#C3DCFF"/>
<path fill-rule="evenodd" clip-rule="evenodd" d="M193.947 121.187H144.988C144.724 121.187 144.491 121.218 144.284 121.278L153.707 130.698H185.621L195.297 121.717C195.001 121.385 194.558 121.187 193.947 121.187Z" fill="#D5E6FF"/>
<path fill-rule="evenodd" clip-rule="evenodd" d="M176.703 138.25H162.026C161.47 138.25 161.365 138.72 161.26 139.272L159.436 148.95H159.437L159.337 149.525C159.271 149.905 159.652 150.227 160.038 150.227H174.596C174.982 150.227 175.242 149.907 175.299 149.525L175.384 148.95H175.402L177.227 139.13C177.315 138.653 177.18 138.25 176.703 138.25Z" fill="#7BABEA"/>
<path fill-rule="evenodd" clip-rule="evenodd" d="M170.915 140.667H165.282L167.314 168.419H172.946L170.915 140.667Z" fill="#7BABEA"/>
<path d="M168.321 167.284H131.743V168.44H168.321V167.284Z" fill="#7BABEA"/>
<path fill-rule="evenodd" clip-rule="evenodd" d="M25.2655 275.746H377.395C377.742 275.746 378.023 276.028 378.023 276.373C378.023 276.718 377.742 277 377.395 277H25.2655C24.9186 277 24.6367 276.718 24.6367 276.373C24.6367 276.03 24.9186 275.746 25.2655 275.746Z" fill="#0F4884"/>
<path fill-rule="evenodd" clip-rule="evenodd" d="M96.4866 265.854L100.916 265.848L113.734 273.877V275.746H96.7851H96.188H79.2393V273.877L92.0567 265.848L96.4866 265.854Z" fill="#9CC1F4"/>
<path d="M99.5885 217.688H93.3857V265.853H99.5885V217.688Z" fill="#9CC1F4"/>
<path d="M102.166 217.688H90.8096V236.43H102.166V217.688Z" fill="#B2D2FF"/>
<path fill-rule="evenodd" clip-rule="evenodd" d="M322.913 209.1H283.023C280.632 209.1 278.678 211.054 278.678 213.443C278.678 215.832 280.632 217.786 283.023 217.786H322.913C325.303 217.786 327.257 215.832 327.257 213.443C327.257 211.054 325.301 209.1 322.913 209.1Z" fill="#B2D2FF"/>
<path fill-rule="evenodd" clip-rule="evenodd" d="M336.339 141.596H376.968L366.749 209.261L326.12 209.298C325.963 209.298 325.803 209.286 325.644 209.261C323.972 209.261 322.854 207.435 323.114 205.783L332.86 144.125C333.12 142.473 334.666 141.596 336.339 141.596Z" fill="#B2D2FF"/>
<path fill-rule="evenodd" clip-rule="evenodd" d="M373.964 144.124L363.64 209.098H318.56C316.17 209.098 314.215 211.052 314.215 213.441C314.215 215.831 316.17 217.784 318.56 217.784H363.979C368.313 217.784 369.066 213.727 369.456 211.267L379.973 145.073C380.235 143.42 379.116 141.595 377.443 141.595C375.77 141.596 374.226 142.473 373.964 144.124Z" fill="#9CC1F4"/>
<path fill-rule="evenodd" clip-rule="evenodd" d="M277.449 218.531L282.124 219.026L276.313 273.806C276.176 275.091 275.014 276.032 273.728 275.895C272.442 275.758 271.501 274.596 271.638 273.311L277.449 218.531Z" fill="#DAE2ED"/>
<path fill-rule="evenodd" clip-rule="evenodd" d="M282.1 219.253L276.312 273.807C276.189 274.966 275.232 275.843 274.103 275.906C273.387 275.438 272.95 274.594 273.045 273.691L278.856 218.911L282.1 219.253Z" fill="#A2BCD9"/>
<path d="M296.402 191.154L273.225 202.243L273.179 264.827C273.014 265.017 272.85 265.205 272.688 265.388C272.563 265.534 272.438 265.674 272.311 265.814C272.011 266.15 271.716 266.467 271.422 266.762C271.289 266.897 271.157 267.027 271.022 267.152C268.851 269.193 266.23 269.52 264.077 269.867C262.409 270.135 261.135 270.232 259.851 272.329C259.811 272.394 259.777 272.461 259.752 272.529C259.456 273.291 259.991 274.17 260.853 274.218L280.282 275.15C281.239 275.203 282.058 274.533 282.23 273.631C282.253 273.503 282.267 273.373 282.263 273.238L281.641 264.678C281.641 264.678 281.641 264.665 281.638 264.643C283.419 248.171 288.161 229.94 286.63 210.414C286.63 210.414 311.951 186.596 311.946 185.711C311.941 184.826 296.402 191.154 296.402 191.154Z" fill="#F4B1B1"/>
<path d="M296.517 196.447C297.361 203.736 292.274 208.061 293.12 215.35C293.131 233.601 296.282 247.155 300.607 265.583C300.75 266.193 299.659 271.99 299.784 272.593C301.706 274.647 307.391 277.607 307.978 268.135C305.53 252.223 311.918 233.917 305.613 214.559L309.595 195.26L296.517 196.447Z" fill="#F4B1B1"/>
<path fill-rule="evenodd" clip-rule="evenodd" d="M310.059 177.743C308.106 189.828 265.941 175.262 270.621 221.004C277.729 224.273 298.245 225.012 309.652 222.284C312.439 209.427 362.713 226.26 343.774 178.536C340.134 170.027 311.403 172.296 310.059 177.743Z" fill="#1F3E7A"/>
<path fill-rule="evenodd" clip-rule="evenodd" d="M316.887 144.484C314.694 149.295 313.5 159.368 303.571 166.094C292.77 173.411 271.347 173.513 272.1 169.673C272.594 167.156 285.787 167.748 300.422 155.554C303.55 152.948 308.241 133.912 317.126 129.345C318.175 128.673 319.951 139.874 316.887 144.484Z" fill="#F4B1B1"/>
<path fill-rule="evenodd" clip-rule="evenodd" d="M351.253 133.588C354.966 148.733 340.894 150.83 344.261 181.405C333.12 182.953 317.836 183.139 308.256 180.782C309.788 169.532 307.373 159.345 306.928 153.203C306.259 143.962 308.391 137.124 313.538 131.649C318.46 126.416 344.975 124.235 351.253 133.588Z" fill="#480808"/>
<path fill-rule="evenodd" clip-rule="evenodd" d="M343.266 169.914C343.14 173.12 343.803 177.241 344.261 181.404C340.15 181.975 337.577 182.308 333.008 182.508C333.936 180.466 341.032 171.408 343.266 169.914Z" fill="black"/>
<path fill-rule="evenodd" clip-rule="evenodd" d="M322.796 124.32L322.752 128.058L322.21 128.525C320.095 130.822 322.435 135.492 324.86 135.331C330.998 135.591 335.675 130.527 333.81 127.811L333.003 126.925L332.789 121.636C333.106 121.616 335.401 120.291 336.085 120.076C336.769 119.859 337.766 118.532 337.825 117.136C337.881 115.741 335.73 116.208 335.73 116.208C338.317 112.617 341.254 109.677 337.396 106.488C333.54 103.297 324.717 101.481 324.717 101.481L319.402 99.6807C320.089 101.505 319.884 105.423 318.548 109.242C316.655 114.669 318.247 122.053 322.796 124.32Z" fill="#F4B1B1"/>
<path fill-rule="evenodd" clip-rule="evenodd" d="M330.298 122.387C330.298 122.387 327.334 127.548 324.876 128.032C322.416 128.515 323.672 128.162 322.754 128.059L322.798 124.321C324.496 124.581 326.155 124.436 330.298 122.387Z" fill="#E98385"/>
<path fill-rule="evenodd" clip-rule="evenodd" d="M260.915 154.625C261.961 154.375 263.049 155.169 263.342 156.399C263.636 157.629 263.027 158.83 261.981 159.08C260.935 159.33 259.848 158.536 259.554 157.306C259.259 156.074 259.87 154.875 260.915 154.625Z" fill="white"/>
<path fill-rule="evenodd" clip-rule="evenodd" d="M276.318 166.798H314.517V167.696C314.517 168.19 314.111 168.595 313.618 168.595H277.217C276.721 168.595 276.318 168.19 276.318 167.696V166.798Z" fill="#3D7DDA"/>
<path fill-rule="evenodd" clip-rule="evenodd" d="M260.835 143.02H290.915C292.101 143.02 292.851 144.023 293.072 145.2L297.203 167.264H263.109L258.977 144.897C258.79 143.881 259.815 143.02 260.835 143.02Z" fill="#3D7DDA"/>
<path fill-rule="evenodd" clip-rule="evenodd" d="M259.804 143.02H289.884C291.07 143.02 291.819 144.023 292.041 145.202L295.885 165.6H295.935L296.182 167.097C296.316 167.909 295.507 168.594 294.684 168.594H263.524C262.702 168.594 262.148 167.913 262.026 167.097L261.841 165.869L257.947 144.898C257.76 143.881 258.784 143.02 259.804 143.02Z" fill="#B1D2FC"/>
<path fill-rule="evenodd" clip-rule="evenodd" d="M275.654 154.5C276.371 154.329 277.116 154.874 277.318 155.717C277.52 156.561 277.101 157.383 276.386 157.555C275.669 157.726 274.923 157.181 274.721 156.338C274.518 155.494 274.936 154.672 275.654 154.5Z" fill="#F4FAFD"/>
<path fill-rule="evenodd" clip-rule="evenodd" d="M350.691 133.945C361.448 138.748 349.77 158.987 347.852 167.203C345.977 174.865 308.339 168.878 301.751 168.596C302.228 167.176 306.801 165.07 309.942 164.252C312.07 163.697 315.651 165.404 318.416 164.857C331.542 162.261 338.721 163.303 338.776 162.815C339.183 152.953 342.41 141.871 347.81 135.347C348.306 134.749 349.889 133.587 350.691 133.945Z" fill="#F4B1B1"/>
<path fill-rule="evenodd" clip-rule="evenodd" d="M329.623 109.332C329.623 109.332 321.537 109.606 318.523 106.993C312.204 101.563 316.05 88.6106 332.209 93.4055C345.067 97.2234 338.774 109.842 355.506 115.069C361.704 117.005 360.967 120.111 355.528 122.218C359.239 123.529 355.651 127.161 352.219 126.725C358.763 131.963 344.593 136.043 334.213 128.462C328.237 124.084 338.736 110.699 329.623 109.332Z" fill="#1F3E7A"/>
<path fill-rule="evenodd" clip-rule="evenodd" d="M264.724 269.284C264.724 269.284 258.08 271.275 258.218 273.379C258.496 277.627 281.96 275.479 282.095 275.336C282.996 274.381 283.141 270.203 282.147 268.702C281.406 267.585 271.896 272.49 264.724 269.284Z" fill="#1F3E7A"/>
<path fill-rule="evenodd" clip-rule="evenodd" d="M297.648 274.855C297.795 277.559 307.57 276.784 309.042 275.972C311.228 274.765 308.566 266.944 307.741 267.891C307.741 267.891 305.192 271.9 302.178 271.092C299.164 270.282 300.222 269.388 299.707 270.403C298.743 272.304 297.513 272.361 297.648 274.855Z" fill="#1F3E7A"/>
<path d="M237.911 176.154H231.758V275.775H237.911V176.154Z" fill="#7BABEA"/>
<path fill-rule="evenodd" clip-rule="evenodd" d="M218.553 168.595H320.905V176.819H218.553C216.292 176.819 214.44 174.968 214.44 172.708C214.44 170.445 216.292 168.595 218.553 168.595Z" fill="#9CC1F4"/>
<path fill-rule="evenodd" clip-rule="evenodd" d="M316.822 168.595H375.257C377.518 168.595 379.37 170.445 379.37 172.706C379.37 174.967 377.518 176.817 375.257 176.817H349.19V275.775H343.958H342.735V176.817H316.823C314.562 176.817 312.71 174.967 312.71 172.706C312.707 170.445 314.558 168.595 316.822 168.595Z" fill="#7BABEA"/>
<path fill-rule="evenodd" clip-rule="evenodd" d="M124.62 103.58C119.658 104.769 115.226 100.856 111.922 103.256C110.286 104.447 109.889 106.638 110.505 110.32C110.613 110.966 109.074 110.626 109.054 110.609C108.376 110.07 107.784 109.759 107.271 110C106.128 110.539 106.217 112.278 106.852 112.985C107.136 113.3 107.694 113.803 107.694 113.803C102.032 111.237 100.858 105.284 101.989 100.994C102.372 99.5402 102.851 98.2798 103.408 97.1928C103.383 96.766 103.42 96.3259 103.526 95.8874C103.98 94.0151 105.558 92.7264 107.311 92.6247C108.088 90.7441 110.068 89.6454 112.017 90.1172C112.604 90.2589 113.128 90.5307 113.568 90.8941L113.777 90.8908C114.786 89.8404 116.324 89.3403 117.855 89.7121C118.929 89.9721 119.808 90.614 120.382 91.456C121.821 90.2489 123.684 89.7087 125.514 90.1522C128.771 90.9425 130.691 94.552 129.802 98.2115C129.245 100.502 127.72 102.271 125.859 103.081C125.474 103.281 125.062 103.45 124.62 103.58Z" fill="#1F3E7A"/>
<g filter="url(#filter0_dd_834_4134)">
<path d="M378.487 50.4434H337.552C334.868 50.4434 332.671 52.6391 332.671 55.3216V68.726C332.671 71.4102 334.868 73.6042 337.552 73.6042H339.096C341.538 73.6042 343.517 75.5837 343.517 78.0256C343.517 79.9329 344.7 80.1246 346.351 79.4578L360.338 73.8126C360.559 73.7248 360.762 73.6025 361 73.6025H378.489C381.174 73.6025 383.369 71.4068 383.369 68.7243V55.3199C383.369 52.6374 381.173 50.4434 378.487 50.4434Z" fill="#480808"/>
</g>
<path d="M370.295 64.1411V65.4465C370.295 65.5099 370.273 65.5649 370.228 65.6099C370.183 65.6549 370.13 65.6766 370.065 65.6766H365.275C365.205 65.6766 365.148 65.6549 365.106 65.6099C365.065 65.5649 365.045 65.5115 365.045 65.4465V58.8827C365.045 58.8194 365.065 58.7644 365.106 58.7193C365.148 58.6743 365.203 58.6526 365.275 58.6526H366.714C366.777 58.6526 366.832 58.6743 366.878 58.7193C366.923 58.7644 366.944 58.8177 366.944 58.8827V63.6809C366.944 63.7443 366.964 63.7993 367.006 63.8443C367.048 63.8893 367.103 63.911 367.174 63.911H370.063C370.126 63.911 370.182 63.9327 370.227 63.9777C370.273 64.0227 370.295 64.0777 370.295 64.1411ZM364.392 64.1411V65.4465C364.392 65.5099 364.371 65.5649 364.326 65.6099C364.281 65.6549 364.227 65.6766 364.162 65.6766H359.372C359.302 65.6766 359.245 65.6549 359.204 65.6099C359.162 65.5649 359.142 65.5115 359.142 65.4465V58.8827C359.142 58.8194 359.162 58.7644 359.204 58.7193C359.245 58.6743 359.302 58.6526 359.372 58.6526H360.812C360.875 58.6526 360.93 58.6743 360.975 58.7193C361.02 58.7644 361.042 58.8177 361.042 58.8827V63.6809C361.042 63.7443 361.062 63.7993 361.103 63.8443C361.145 63.8893 361.202 63.911 361.272 63.911H364.161C364.224 63.911 364.279 63.9327 364.324 63.9777C364.369 64.0227 364.392 64.0777 364.392 64.1411ZM354.485 60.6483V61.0518C354.485 61.1151 354.507 61.1701 354.552 61.2151C354.597 61.2602 354.65 61.2818 354.716 61.2818H357.317C357.381 61.2818 357.436 61.3035 357.481 61.3485C357.526 61.3935 357.548 61.4469 357.548 61.5119V62.8357C357.548 62.899 357.526 62.954 357.481 62.9991C357.436 63.0441 357.382 63.0657 357.317 63.0657H354.716C354.652 63.0657 354.597 63.0874 354.552 63.1324C354.507 63.1774 354.485 63.2308 354.485 63.2958V63.6609C354.485 63.7243 354.507 63.7793 354.552 63.8243C354.597 63.8693 354.65 63.891 354.716 63.891H357.701C357.764 63.891 357.819 63.9127 357.864 63.9577C357.909 64.0027 357.931 64.0561 357.931 64.1211V65.4448C357.931 65.5082 357.909 65.5632 357.864 65.6082C357.819 65.6532 357.766 65.6749 357.701 65.6749H352.816C352.752 65.6749 352.697 65.6532 352.652 65.6082C352.607 65.5632 352.586 65.5099 352.586 65.4448V58.8811C352.586 58.8177 352.607 58.7627 352.652 58.7177C352.697 58.6727 352.751 58.651 352.816 58.651H357.701C357.764 58.651 357.819 58.6727 357.864 58.7177C357.909 58.7627 357.931 58.816 357.931 58.8811V60.1865C357.931 60.2498 357.909 60.3048 357.864 60.3499C357.819 60.3949 357.766 60.4166 357.701 60.4166H354.716C354.652 60.4166 354.597 60.4382 354.552 60.4832C354.509 60.5299 354.485 60.5849 354.485 60.6483ZM346.863 63.2691C347.209 63.4926 347.55 63.6693 347.891 63.7976C348.229 63.926 348.546 63.9894 348.841 63.9894C349.123 63.9894 349.337 63.9494 349.485 63.8693C349.632 63.7893 349.705 63.6693 349.705 63.5092C349.705 63.4259 349.674 63.3608 349.609 63.3125C349.545 63.2641 349.46 63.2241 349.355 63.1925C349.25 63.1608 349.127 63.1341 348.985 63.1158C348.845 63.0974 348.7 63.0707 348.553 63.0391C348.413 63.0141 348.248 62.9824 348.059 62.9474C347.871 62.9124 347.677 62.8607 347.479 62.794C347.28 62.7273 347.083 62.6423 346.888 62.5389C346.693 62.4372 346.518 62.3055 346.365 62.1454C346.211 61.9854 346.088 61.7953 345.994 61.5753C345.901 61.3552 345.856 61.0934 345.856 60.7933C345.856 60.3515 345.943 59.9881 346.114 59.6996C346.288 59.4112 346.506 59.1828 346.772 59.0128C347.037 58.8427 347.334 58.7243 347.659 58.6576C347.986 58.591 348.303 58.5576 348.61 58.5576C349.147 58.5576 349.629 58.636 350.054 58.7927C350.479 58.9494 350.888 59.1778 351.278 59.4796C351.33 59.5246 351.358 59.5779 351.365 59.643C351.372 59.7063 351.355 59.7647 351.316 59.8164L350.568 60.8817C350.529 60.9334 350.478 60.9651 350.414 60.9784C350.351 60.9917 350.292 60.9784 350.241 60.9401C349.914 60.735 349.61 60.5899 349.328 60.5032C349.047 60.4166 348.788 60.3732 348.551 60.3732C348.481 60.3732 348.399 60.3749 348.306 60.3782C348.213 60.3815 348.126 60.3949 348.042 60.4166C347.959 60.4382 347.891 60.4749 347.836 60.5266C347.781 60.5783 347.754 60.6483 347.754 60.7383C347.754 60.8284 347.821 60.9084 347.956 60.9784C348.091 61.0484 348.244 61.1101 348.416 61.1601C348.59 61.2118 348.755 61.2518 348.915 61.2802C349.075 61.3085 349.177 61.3269 349.222 61.3335C349.452 61.3785 349.705 61.4436 349.981 61.5302C350.256 61.6169 350.513 61.7453 350.753 61.9137C350.993 62.0838 351.195 62.3038 351.358 62.5756C351.522 62.8473 351.603 63.1874 351.603 63.5976C351.603 63.981 351.537 64.3128 351.402 64.5912C351.266 64.8697 351.08 65.0981 350.839 65.2781C350.599 65.4565 350.311 65.5899 349.976 65.6766C349.64 65.7633 349.267 65.8066 348.856 65.8066C348.524 65.8066 348.213 65.78 347.926 65.7249C347.637 65.6699 347.369 65.5949 347.12 65.4999C346.87 65.4032 346.638 65.2898 346.425 65.1598C346.209 65.028 346.013 64.8897 345.834 64.743C345.783 64.7046 345.754 64.6513 345.748 64.5846C345.741 64.5179 345.758 64.4579 345.796 64.4079L346.535 63.3425C346.573 63.2908 346.625 63.2591 346.688 63.2458C346.755 63.2275 346.813 63.2358 346.863 63.2691Z" fill="white"/>
<g filter="url(#filter1_dd_834_4134)">
<path d="M51.4114 63.3994H92.3472C95.0325 63.3994 97.2274 65.5951 97.2274 68.2777V81.682C97.2274 84.3662 95.0308 86.5603 92.3472 86.5603H90.8027C88.3608 86.5603 86.3813 88.5398 86.3813 90.9817C86.3813 92.889 85.1988 93.0807 83.5476 92.4138L69.561 86.7687C69.3398 86.6809 69.1371 86.5586 68.8991 86.5586H51.4114C48.7261 86.5586 46.5312 84.3629 46.5312 81.6804V68.276C46.5312 65.5951 48.7278 63.3994 51.4114 63.3994Z" fill="#272D35"/>
</g>
<path d="M81.8126 71.6551L79.4125 75.5414C79.3808 75.5997 79.3525 75.6697 79.3258 75.7531C79.3008 75.8365 79.2874 75.9098 79.2874 75.9732V78.1705C79.2874 78.2339 79.2658 78.2889 79.2207 78.3339C79.1757 78.3789 79.1223 78.4006 79.0589 78.4006H77.6162C77.5529 78.4006 77.4995 78.3789 77.4545 78.3339C77.4094 78.2889 77.3878 78.2356 77.3878 78.1705V75.9832C77.3878 75.9198 77.3761 75.8448 77.3544 75.7581C77.3327 75.6714 77.3044 75.603 77.2727 75.5514C76.8891 74.8928 76.4971 74.2459 76.0968 73.6124C75.6965 72.9789 75.2979 72.327 74.901 71.6551C74.8693 71.5967 74.8626 71.5384 74.8826 71.4784C74.901 71.4183 74.9427 71.3867 75.0077 71.3867H76.7156C76.779 71.3867 76.8457 71.4067 76.9124 71.445C76.9791 71.4834 77.0292 71.5317 77.0609 71.5884L78.2367 73.6424C78.2684 73.6941 78.3067 73.7191 78.3518 73.7191C78.3968 73.7191 78.4352 73.6941 78.4669 73.6424L79.6327 71.5884C79.6644 71.53 79.7144 71.4834 79.7811 71.445C79.8478 71.4067 79.9146 71.3867 79.9779 71.3867H81.7058C81.7692 71.3867 81.8159 71.4083 81.8443 71.4534C81.8743 71.4984 81.8626 71.5651 81.8126 71.6551ZM68.4597 71.6167C68.4597 71.5534 68.4814 71.4984 68.5264 71.4534C68.5715 71.4083 68.6249 71.3867 68.6882 71.3867H70.1309C70.1943 71.3867 70.2477 71.4083 70.2927 71.4534C70.3377 71.4984 70.3594 71.5517 70.3594 71.6167V75.503C70.3594 75.7531 70.3994 75.9581 70.4795 76.1215C70.5612 76.2849 70.6596 76.4133 70.778 76.505C70.8965 76.5984 71.0249 76.6634 71.1583 76.7017C71.2934 76.7401 71.4152 76.7601 71.5253 76.7601C71.6337 76.7601 71.7571 76.7401 71.8922 76.7017C72.0273 76.6634 72.1524 76.5984 72.2674 76.505C72.3825 76.4116 72.4809 76.2849 72.5627 76.1215C72.6427 75.9581 72.6827 75.7514 72.6827 75.503V71.6167C72.6827 71.5534 72.7044 71.4984 72.7494 71.4534C72.7945 71.4083 72.8462 71.3867 72.9112 71.3867H74.3539C74.4173 71.3867 74.4707 71.4083 74.5157 71.4534C74.5607 71.4984 74.5824 71.5517 74.5824 71.6167V75.503C74.5824 75.9565 74.5107 76.37 74.3673 76.7401C74.2238 77.1119 74.0187 77.427 73.7502 77.6904C73.4816 77.9521 73.1581 78.1555 72.7828 78.2989C72.4059 78.4423 71.9872 78.514 71.5269 78.514C71.0666 78.514 70.648 78.4423 70.271 78.2989C69.8958 78.1555 69.5722 77.9521 69.3037 77.6904C69.0351 77.4286 68.8283 77.1119 68.6816 76.7401C68.5348 76.3683 68.4614 75.9565 68.4614 75.503V71.6167H68.4597ZM65.024 75.6264H64.0166C63.9532 75.6264 63.8982 75.6481 63.8531 75.6931C63.8081 75.7381 63.7864 75.7914 63.7864 75.8565V76.4033C63.7864 76.4666 63.8081 76.5217 63.8531 76.5667C63.8982 76.6117 63.9515 76.6334 64.0166 76.6334H65.0923C65.2074 76.6334 65.3158 76.585 65.4192 76.49C65.521 76.3933 65.5727 76.2816 65.5727 76.1549C65.5727 76.0398 65.5226 75.9231 65.4242 75.8048C65.3225 75.6864 65.1891 75.6264 65.024 75.6264ZM64.0149 74.0442H64.9072C65.0356 74.0442 65.1374 73.9942 65.2141 73.8958C65.2908 73.7975 65.3292 73.6858 65.3292 73.564C65.3292 73.449 65.2825 73.349 65.1907 73.2673C65.0973 73.1839 65.0106 73.1422 64.9272 73.1422H64.0149C63.9515 73.1422 63.8965 73.1639 63.8515 73.2089C63.8064 73.2539 63.7847 73.3073 63.7847 73.3723V73.8141C63.7847 73.8775 63.8064 73.9325 63.8515 73.9775C63.8965 74.0209 63.9515 74.0442 64.0149 74.0442ZM66.6935 74.7828C66.7952 74.8411 66.8986 74.9112 67.0004 74.9945C67.1021 75.0779 67.1972 75.1796 67.2839 75.3013C67.3706 75.423 67.4407 75.563 67.4957 75.7231C67.5508 75.8831 67.5774 76.0649 67.5774 76.2699C67.5774 76.6851 67.5124 77.0302 67.3806 77.3019C67.2489 77.5737 67.0721 77.7921 66.8486 77.9538C66.6251 78.1172 66.3666 78.2322 66.0764 78.2989C65.7845 78.3656 65.4793 78.3989 65.1591 78.3989H62.1169C62.0535 78.3989 61.9985 78.3773 61.9534 78.3323C61.9084 78.2872 61.8867 78.2339 61.8867 78.1689V71.6051C61.8867 71.5417 61.9084 71.4867 61.9534 71.4417C61.9985 71.3967 62.0518 71.375 62.1169 71.375H65.0156C65.3225 71.375 65.6177 71.4083 65.8979 71.475C66.1798 71.5417 66.4283 71.6518 66.6418 71.8068C66.8569 71.9602 67.0287 72.1603 67.1605 72.407C67.2922 72.6537 67.3573 72.9555 67.3573 73.314C67.3573 73.6024 67.2856 73.8508 67.1421 74.0625C66.9987 74.2743 66.8436 74.4393 66.6768 74.561C66.5584 74.6444 66.565 74.7178 66.6935 74.7828Z" fill="white"/>
<path fill-rule="evenodd" clip-rule="evenodd" d="M110.907 43.2254L109.881 42.1884C109.452 41.7549 109.359 41.0847 109.666 40.5579C110.254 39.5359 110.705 38.4589 111.017 37.3485C111.183 36.7616 111.725 36.3598 112.336 36.3648L113.795 36.3715C114.552 36.3765 115.171 35.768 115.176 35.0127L115.193 32.2185C115.198 31.4616 114.586 30.8447 113.83 30.8397L112.371 30.8297C111.759 30.8264 111.222 30.4179 111.063 29.8294C110.765 28.7157 110.328 27.632 109.751 26.605C109.452 26.0732 109.554 25.408 109.989 24.9778L111.027 23.9525C111.565 23.4206 111.57 22.5537 111.038 22.0152L109.074 20.0279C108.543 19.4894 107.674 19.4844 107.135 20.0145L106.098 21.0399C105.664 21.4683 104.996 21.5617 104.467 21.2583C103.446 20.6697 102.369 20.2196 101.26 19.9062C100.669 19.7411 100.269 19.1976 100.274 18.5857L100.282 17.1269C100.287 16.37 99.6768 15.7531 98.9196 15.7498L96.1243 15.7315C95.3671 15.7265 94.75 16.3367 94.745 17.0936L94.735 18.5524C94.7317 19.1626 94.323 19.7011 93.7326 19.8578C92.6201 20.1579 91.536 20.5947 90.507 21.1699C89.9766 21.47 89.3095 21.3666 88.8792 20.9348L87.8551 19.8962C87.323 19.3577 86.4558 19.3527 85.917 19.8845L83.929 21.8485C83.3902 22.3803 83.3852 23.2473 83.9173 23.7858L84.9413 24.8228C85.37 25.2579 85.4634 25.9231 85.1582 26.455C84.5694 27.4736 84.1191 28.5506 83.8072 29.6593C83.6421 30.2495 83.0984 30.6497 82.4879 30.6463L81.0286 30.6363C80.2713 30.6313 79.6542 31.2415 79.6492 31.9984L79.6309 34.791C79.6259 35.5479 80.238 36.1648 80.9952 36.1715L82.4529 36.1798C83.065 36.1848 83.6021 36.5916 83.7605 37.1834C84.0607 38.2955 84.496 39.3808 85.0731 40.4062C85.3716 40.938 85.2716 41.6065 84.8363 42.035L83.7989 43.0604C83.2601 43.5905 83.2535 44.4591 83.7872 44.9977L85.7503 46.9866C86.2806 47.5235 87.1496 47.5285 87.69 46.9983L88.7274 45.973C89.161 45.5445 89.8298 45.4528 90.3602 45.7562C91.3793 46.3448 92.4567 46.7932 93.5658 47.1067C94.1546 47.2717 94.5549 47.8136 94.5515 48.4254L94.5415 49.8842C94.5382 50.6428 95.1469 51.2597 95.9042 51.2647L98.6995 51.2814C99.4567 51.2864 100.074 50.6778 100.079 49.9193L100.087 48.4604C100.09 47.8502 100.499 47.3134 101.088 47.1534C102.204 46.8566 103.286 46.4198 104.313 45.8429C104.847 45.5445 105.511 45.6445 105.94 46.0797L106.967 47.1183C107.497 47.6569 108.366 47.6635 108.905 47.13L110.893 45.166C111.434 44.6309 111.439 43.7623 110.907 43.2254ZM101.755 39.7259C99.1548 41.5682 95.5689 41.5465 92.9921 39.6709C88.739 36.5782 88.7791 30.3229 93.0705 27.2802C95.6707 25.4396 99.2549 25.4613 101.832 27.3352C106.085 30.4313 106.046 36.6849 101.755 39.7259Z" fill="#D8E7FF"/>
<defs>
<filter id="filter0_dd_834_4134" x="295.671" y="13.4434" width="141.698" height="120.363" filterUnits="userSpaceOnUse" color-interpolation-filters="sRGB">
<feFlood flood-opacity="0" result="BackgroundImageFix"/>
<feColorMatrix in="SourceAlpha" type="matrix" values="0 0 0 0 0 0 0 0 0 0 0 0 0 0 0 0 0 0 127 0" result="hardAlpha"/>
<feOffset dx="-7" dy="-7"/>
<feGaussianBlur stdDeviation="15"/>
<feColorMatrix type="matrix" values="0 0 0 0 0.14902 0 0 0 0 0.180392 0 0 0 0 0.196078 0 0 0 1 0"/>
<feBlend mode="normal" in2="BackgroundImageFix" result="effect1_dropShadow_834_4134"/>
<feColorMatrix in="SourceAlpha" type="matrix" values="0 0 0 0 0 0 0 0 0 0 0 0 0 0 0 0 0 0 127 0" result="hardAlpha"/>
<feOffset dx="14" dy="14"/>
<feGaussianBlur stdDeviation="20"/>
<feColorMatrix type="matrix" values="0 0 0 0 0.0646354 0 0 0 0 0.0646354 0 0 0 0 0.0708333 0 0 0 0.75 0"/>
<feBlend mode="normal" in2="effect1_dropShadow_834_4134" result="effect2_dropShadow_834_4134"/>
<feBlend mode="normal" in="SourceGraphic" in2="effect2_dropShadow_834_4134" result="shape"/>
</filter>
<filter id="filter1_dd_834_4134" x="9.53125" y="26.3994" width="141.696" height="120.363" filterUnits="userSpaceOnUse" color-interpolation-filters="sRGB">
<feFlood flood-opacity="0" result="BackgroundImageFix"/>
<feColorMatrix in="SourceAlpha" type="matrix" values="0 0 0 0 0 0 0 0 0 0 0 0 0 0 0 0 0 0 127 0" result="hardAlpha"/>
<feOffset dx="-7" dy="-7"/>
<feGaussianBlur stdDeviation="15"/>
<feColorMatrix type="matrix" values="0 0 0 0 0.14902 0 0 0 0 0.180392 0 0 0 0 0.196078 0 0 0 1 0"/>
<feBlend mode="normal" in2="BackgroundImageFix" result="effect1_dropShadow_834_4134"/>
<feColorMatrix in="SourceAlpha" type="matrix" values="0 0 0 0 0 0 0 0 0 0 0 0 0 0 0 0 0 0 127 0" result="hardAlpha"/>
<feOffset dx="14" dy="14"/>
<feGaussianBlur stdDeviation="20"/>
<feColorMatrix type="matrix" values="0 0 0 0 0.0646354 0 0 0 0 0.0646354 0 0 0 0 0.0708333 0 0 0 0.75 0"/>
<feBlend mode="normal" in2="effect1_dropShadow_834_4134" result="effect2_dropShadow_834_4134"/>
<feBlend mode="normal" in="SourceGraphic" in2="effect2_dropShadow_834_4134" result="shape"/>
</filter>
</defs>
</svg>
